<svg xmlns="http://www.w3.org/2000/svg" width="244" height="23" fill="none"><path fill="#D3ED05" d="M15.333 7.666H0v15.333h15.333V7.666Zm0 0L7.667-.001 0 7.666h15.333Z"/><path fill="#D3ED05" d="M30.665-.001H15.332v15.333h15.333V0ZM15.332 15.332l7.667 7.667 7.666-7.667H15.332Z"/><path fill="#fff" d="M235.528 22.15a133.96 133.96 0 0 0-1.515-4.248h-9.477l-1.486 4.248h-7.456L223.912.582h10.933l8.377 21.568h-7.694Zm-3.209-8.883a390.027 390.027 0 0 0-2.317-6.238l-.713-1.931a733.331 733.331 0 0 0-3.06 8.17h6.09ZM214.413.552v10.487c0 3.703-.961 6.536-2.882 8.496-1.901 1.941-4.922 2.912-9.061 2.912-2.377 0-4.575-.347-6.595-1.04-2.001-.693-3.783-1.595-5.348-2.704a40.24 40.24 0 0 0 .921-3.535 31.5 31.5 0 0 0 .535-3.713c2.04 1.643 3.921 2.782 5.645 3.416 1.723.634 3.366.95 4.931.95 1.624 0 2.783-.366 3.476-1.098.693-.733 1.05-1.99 1.069-3.773V8.692c0-3.209-.089-5.922-.267-8.14h7.576ZM188.156.61a260.036 260.036 0 0 0-.208 10.755c0 3.842.069 7.437.208 10.784H177.52l-7.189-16.22.534 16.22h-7.635c.159-3.843.238-7.437.238-10.784 0-3.328-.079-6.912-.238-10.755h10.933l7.219 16.667L180.877.61h7.279Zm-27.31 5.884c-2.357-.119-4.099-.188-5.228-.208v10.16c1.148-.02 2.891-.089 5.228-.208v5.912h-17.26v-5.912c2.278.119 4.011.188 5.199.208V6.286c-1.188.02-2.921.09-5.199.208V.582h17.26v5.912ZM141.21.61a261.803 261.803 0 0 0-.208 10.755c0 3.842.07 7.437.208 10.784h-10.635l-7.19-16.22.535 16.22h-7.635c.159-3.843.238-7.437.238-10.784 0-3.328-.079-6.912-.238-10.755h10.933l7.219 16.667L133.932.61h7.278Zm-27.312 6.21c-3.109-.098-6.13-.158-9.061-.178V22.15H97.41V6.642a355 355 0 0 0-9.031.179V.582h25.519v6.239Zm-33.03 15.33a135.527 135.527 0 0 0-1.515-4.248h-9.477L68.39 22.15h-7.456L69.252.582h10.932l8.378 21.568h-7.694Zm-3.209-8.883a390.027 390.027 0 0 0-2.317-6.238l-.713-1.931a723.701 723.701 0 0 0-3.06 8.17h6.09Zm-16.155-7.13h-16.16v3.12c1.01.02 2.524.03 4.544.03 3.486 0 7.031-.06 10.636-.179v5.823a297.466 297.466 0 0 0-11.408-.208c-1.664 0-2.921.01-3.773.03v7.397h-7.011c.158-3.842.238-7.437.238-10.784 0-3.347-.08-6.942-.238-10.784h23.172v5.555Z"/></svg>